Coordinates
version=1
nRows=24
nColumns=24
inDegrees=yes

Units are S.I. units (second, meters, Newtons, ...)
Angles are in degrees.

endheader
time	pelvis_tilt	pelvis_list	pelvis_rotation	pelvis_tx	pelvis_ty	pelvis_tz	hip_flexion_r	hip_adduction_r	hip_rotation_r	knee_angle_r	ankle_angle_r	subtalar_angle_r	mtp_angle_r	hip_flexion_l	hip_adduction_l	hip_rotation_l	knee_angle_l	ankle_angle_l	subtalar_angle_l	mtp_angle_l	lumbar_extension	lumbar_bending	lumbar_rotation
      1.02866667	      2.65134582	     -4.55865584	     -4.37902738	      0.42343625	      1.01854531	      0.36259014	      6.79451315	      8.45372331	      2.37286285	    -16.02838117	     -0.96070420	    -18.31312695	     -4.35142928	     18.14145924	     -8.95038124	     -8.47100874	    -69.14442568	      4.38539299	    -15.04781257	    -16.07620753	    -13.61033253	      6.43045769	      5.43313020
      1.03283333	      2.84885127	     -4.43984421	     -4.63584280	      0.42879279	      1.01976912	      0.36337332	      6.02687734	      8.33236271	      2.67266247	    -15.61509262	     -0.91861317	    -18.25673704	     -4.31405431	     18.35781981	     -8.88005710	     -8.70055921	    -68.28090605	      4.52937582	    -15.15458626	    -16.11962746	    -13.80663375	      6.16721720	      5.66680421
      1.03700000	      2.99791538	     -4.29762776	     -4.88537107	      0.43414280	      1.02088152	      0.36411690	      5.32653724	      8.18052520	      2.95535415	    -15.22823136	     -0.85221639	    -18.22548189	     -4.28559960	     18.61449864	     -8.78221496	     -8.92780183	    -67.36278157	      4.61965860	    -15.27596804	    -16.16254368	    -13.93729840	      5.89021112	      5.84310855
      1.04116667	      3.17464902	     -4.17215346	     -5.13469051	      0.43948221	      1.02199844	      0.36487509	      4.58815210	      8.04093764	      3.25252278	    -14.81980108	     -0.81089818	    -18.20165705	     -4.25900861	     18.81941340	     -8.70941704	     -9.16816748	    -66.39894927	      4.73674275	    -15.39928863	    -16.21337293	    -14.10315745	      5.62182720	      6.05585264
      1.04533333	      3.31275177	     -4.04092069	     -5.38219851	      0.44479404	      1.02300206	      0.36563670	      3.90224584	      7.89407882	      3.55155188	    -14.42663226	     -0.75996243	    -18.18380437	     -4.23723742	     19.05622363	     -8.63663022	     -9.41173931	    -65.39753440	      4.83870694	    -15.53662499	    -16.26727768	    -14.22931546	      5.33568345	      6.23770322
      1.04950000	      3.50833201	     -3.94070192	     -5.64687716	      0.45008083	      1.02405230	      0.36641625	      3.14788256	      7.76976567	      3.87482989	    -14.01804073	     -0.73026138	    -18.17022878	     -4.21375514	     19.20120534	     -8.60590356	     -9.68880885	    -64.35147716	      4.99737127	    -15.67501695	    -16.34640145	    -14.42510403	      5.09247740	      6.48040756
      1.05366667	      3.64677800	     -3.82162803	     -5.89872231	      0.45535556	      1.02496619	      0.36717218	      2.46951256	      7.62520914	      4.19076716	    -13.63210924	     -0.68450790	    -18.16685723	     -4.19566886	     19.39905742	     -8.55522192	     -9.95601177	    -63.26073447	      5.10460249	    -15.82875567	    -16.43348854	    -14.55406919	      4.82835842	      6.66461277
      1.05783333	      3.76048174	     -3.69690933	     -6.13710445	      0.46061317	      1.02579333	      0.36788938	      1.82774045	      7.47070026	      4.49082389	    -13.25967558	     -0.62001554	    -18.19692051	     -4.18527369	     19.61142933	     -8.49467555	    -10.21216093	    -62.12244889	      5.16293027	    -15.98758731	    -16.51336886	    -14.64625317	      4.56390304	      6.81148877
      1.06200000	      3.88276752	     -3.58816738	     -6.38540557	      0.46588015	      1.02658797	      0.36863998	      1.17659440	      7.32793717	      4.79142907	    -12.88674733	     -0.57360291	    -18.21233335	     -4.17867386	     19.78772994	     -8.46466286	    -10.49632168	    -60.94542907	      5.25742907	    -16.13672497	    -16.60432062	    -14.74813313	      4.31243396	      7.00064793
      1.06616667	      4.00388660	     -3.50913054	     -6.64551083	      0.47109578	      1.02731936	      0.36941182	      0.52932871	      7.21439344	      5.12636702	    -12.51660627	     -0.54163163	    -18.22360571	     -4.17621358	     19.94948984	     -8.47654078	    -10.79506608	    -59.74591418	      5.39852991	    -16.28360141	    -16.73587298	    -14.87073810	      4.09593235	      7.22512972
      1.07033333	      4.06462662	     -3.41202384	     -6.86845192	      0.47631855	      1.02789900	      0.37009193	     -0.03653949	      7.08115969	      5.40831512	    -12.17536622	     -0.46272011	    -18.27566626	     -4.17880354	     20.17375617	     -8.45725428	    -11.05892047	    -58.50078956	      5.42070138	    -16.47085057	    -16.83925406	    -14.90203535	      3.87028959	      7.33265103
      1.07450000	      4.16244598	     -3.32769352	     -7.10764951	      0.48152114	      1.02849623	      0.37080944	     -0.64296235	      6.95318091	      5.71343667	    -11.82904297	     -0.40880341	    -18.31006535	     -4.18584184	     20.32732135	     -8.45854010	    -11.35395670	    -57.21062277	      5.48075458	    -16.62894006	    -16.95608378	    -14.98392071	      3.64723839	      7.50183096
      1.07866667	      4.23460506	     -3.25754147	     -7.34421311	      0.48668902	      1.02899095	      0.37151237	     -1.21472663	      6.83937408	      6.02958069	    -11.49355655	     -0.34990170	    -18.33907784	     -4.19720633	     20.49778789	     -8.47767587	    -11.64566071	    -55.89629890	      5.53852304	    -16.79899453	    -17.08602933	    -15.05570419	      3.44846527	      7.66877067
      1.08283333	      4.29818857	     -3.20249811	     -7.57237030	      0.49185900	      1.02941496	      0.37220664	     -1.77352658	      6.73859915	      6.33162491	    -11.16908625	     -0.28462248	    -18.38158623	     -4.21351229	     20.66074600	     -8.51614590	    -11.94119853	    -54.54971427	      5.57998810	    -16.96565278	    -17.22795920	    -15.10905223	      3.26839381	      7.82400308
      1.08700000	      4.33361321	     -3.15707021	     -7.79772669	      0.49702757	      1.02974394	      0.37287887	     -2.29465231	      6.64666264	      6.62372778	    -10.85897613	     -0.21104984	    -18.41844381	     -4.23325947	     20.83707764	     -8.56720177	    -12.23907567	    -53.17108829	      5.60671964	    -17.13610457	    -17.38033411	    -15.12887201	      3.10402113	      7.97423920
      1.09116667	      4.33691943	     -3.12268827	     -8.00549236	      0.50222081	      1.02995777	      0.37351572	     -2.77652077	      6.56572689	      6.86353390	    -10.55823647	     -0.14107424	    -18.46573716	     -4.25345348	     21.03841920	     -8.63399345	    -12.54017600	    -51.77404406	      5.61561279	    -17.30443041	    -17.51961814	    -15.11231792	      2.96169261	      8.08950471
      1.09533333	      4.37343929	     -3.10307366	     -8.22327865	      0.50734415	      1.03017812	      0.37416576	     -3.28884154	      6.49505739	      7.16584096	    -10.27181074	     -0.04706650	    -18.49930114	     -4.27930434	     21.18018023	     -8.70928273	    -12.84109243	    -50.33142444	      5.61066847	    -17.46589021	    -17.68471702	    -15.14643838	      2.82415289	      8.24067786
      1.09950000	      4.28135816	     -3.10913441	     -8.36056592	      0.51255507	      1.03011005	      0.37459967	     -3.66321323	      6.45892064	      7.31591681	     -9.98046828	     -0.03733172	    -18.49446956	     -4.29202312	     21.48227093	     -8.79350082	    -13.05074642	    -48.91009830	      5.63692399	    -17.59512501	    -17.76252870	    -15.02786192	      2.77567630	      8.28593918
      1.10366667	      4.38831055	     -3.10648077	     -8.63144957	      0.51763837	      1.03035130	      0.37538997	     -4.24360843	      6.39119643	      7.68170993	     -9.71969651	      0.13613713	    -18.54263524	     -4.32668080	     21.48355154	     -8.91270442	    -13.46533065	    -47.38458788	      5.58591785	    -17.75874058	    -17.97839453	    -15.15349176	      2.62114772	      8.51540401
      1.10783333	      4.34464186	     -3.12721065	     -8.80598574	      0.52280308	      1.03026363	      0.37592665	     -4.66086256	      6.36382053	      7.90207022	     -9.45950170	      0.22799515	    -18.59438304	     -4.35577291	     21.67808900	     -9.02789649	    -13.75603898	    -45.88467128	      5.54684320	    -17.90351138	    -18.14587227	    -15.09225476	      2.55666241	      8.59684115
      1.11200000	      4.34855528	     -3.16444028	     -9.01611917	      0.52797068	      1.03022753	      0.37655135	     -5.13376382	      6.34014533	      8.15205371	     -9.19421532	      0.29851762	    -18.59141447	     -4.40567717	     21.78157812	     -9.17880795	    -14.11981418	    -44.34456970	      5.50605641	    -17.95712325	    -18.43202321	    -15.09754766	      2.49125178	      8.79049092
      1.11616667	      4.21052681	     -3.22393704	     -9.10602831	      0.53315842	      1.02984487	      0.37684854	     -5.44409111	      6.36184614	      8.26150895	     -8.95271959	      0.38799223	    -18.61235507	     -4.41756882	     22.08693445	     -9.30197437	    -14.30936463	    -42.83844325	      5.46716083	    -18.05937370	    -18.50727548	    -14.94063986	      2.52449220	      8.76811898
      1.12033333	      4.23868687	     -3.27524363	     -9.32551748	      0.53830624	      1.02974213	      0.37746771	     -5.93090933	      6.34228351	      8.51772206	     -8.72446666	      0.54914185	    -18.59701403	     -4.45639462	     22.12399905	     -9.46320071	    -14.71738553	    -41.24185801	      5.38771905	    -18.13116498	    -18.76862871	    -14.97810520	      2.46451608	      8.95357448
      1.12450000	      4.07495393	     -3.35674471	     -9.40756985	      0.54352423	      1.02921769	      0.37771736	     -6.21075862	      6.38605913	      8.60708308	     -8.50092209	      0.64640656	    -18.60205595	     -4.46612169	     22.42739361	     -9.60682535	    -14.92255970	    -39.69991135	      5.34366533	    -18.18321337	    -18.84328348	    -14.79511049	      2.53133939	      8.92837716
